<svg id="图层_1" data-name="图层 1" xmlns="http://www.w3.org/2000/svg" viewBox="0 0 533 417"><title>后台图标3</title><path d="M65.94,146.55a29.28,29.28,0,0,1,29.27-29.27H458.94L433.22,25.85A29.28,29.28,0,0,0,397.11,5.6L57.88,101.05a29.28,29.28,0,0,0-20.25,36.11L65.94,237.77Z"/><path d="M226.13,250.9q-3-12.89-6-24.43h-.79q-2.79,11.85-5.78,24.58t-5.87,24.08L204.44,288h30.95l-3.19-12.84Q229.13,263.79,226.13,250.9Z"/><path d="M368.39,232.24a55.17,55.17,0,0,0-21.64-4h-4.88v93.35h4.88a51.78,51.78,0,0,0,21.64-4.28q9.41-4.27,14.78-14.63t5.38-28.36q0-18-5.38-28.07T368.39,232.24Z"/><path d="M464.93,136.13H112.53A29.27,29.27,0,0,0,83.26,165.4V384.87a29.27,29.27,0,0,0,29.27,29.27h352.4a29.27,29.27,0,0,0,29.27-29.27V165.4A29.27,29.27,0,0,0,464.93,136.13ZM251.11,351l-8.76-34.84H197.47L188.72,351h-37L198.77,199.3h43.58L289.43,351Zm165.2-33.29A59.08,59.08,0,0,1,390,342.81Q373.12,351,351,351H305.35V199.3h43.59q23.19,0,40.45,7.76a57.51,57.51,0,0,1,26.82,24.34q9.56,16.56,9.56,42.94T416.31,317.68Z"/></svg>