<svg id="图层_1" data-name="图层 1" xmlns="http://www.w3.org/2000/svg" viewBox="0 0 533 417"><title>后台图标3</title><path d="M277.43,334.69H93.26v-12H272.74a130.85,130.85,0,0,1-4.31-66.31H93.26v-12h178.1A130.38,130.38,0,0,1,374.09,153V53.25A44.94,44.94,0,0,0,329.15,8.31H82.36A44.94,44.94,0,0,0,37.42,53.25v310.5a44.94,44.94,0,0,0,44.94,44.94H329.15a44.73,44.73,0,0,0,21.37-5.4A130.67,130.67,0,0,1,277.43,334.69ZM93.26,87.75H225.9v12H93.26Zm0,78.31H225.9v12H93.26Z"/><path d="M364.83,265.13q-2.1-9.11-4.21-17.25h-.57q-2,8.37-4.07,17.36t-4.15,17l-2.32,9.06h21.86l-2.25-9.06Q366.95,274.23,364.83,265.13Z"/><path d="M465.28,252A38.83,38.83,0,0,0,450,249.14h-3.44v65.91H450a36.48,36.48,0,0,0,15.29-3,21.93,21.93,0,0,0,10.43-10.33q3.8-7.31,3.8-20t-3.8-19.82A21,21,0,0,0,465.28,252Z"/><path d="M402.13,159.47A122.77,122.77,0,1,0,524.9,282.24,122.77,122.77,0,0,0,402.13,159.47ZM382.47,335.78l-6.18-24.59H344.6l-6.19,24.59H312.27L345.51,228.7h30.78l33.23,107.08Zm98-5.76q-11.91,5.76-27.5,5.76H420.76V228.7h30.78q16.36,0,28.56,5.48A40.57,40.57,0,0,1,499,251.36q6.75,11.7,6.75,30.32t-6.68,30.6A41.68,41.68,0,0,1,480.52,330Z"/></svg>