<svg id="图层_1" data-name="图层 1" xmlns="http://www.w3.org/2000/svg" viewBox="0 0 533 417"><title>后台图标3</title><rect x="23.76" y="290.22" width="487.65" height="26.15" rx="12.75" ry="12.75"/><path d="M248.06,323.23h39.05a0,0,0,0,1,0,0v72.49a19,19,0,0,1-19,19h-1a19,19,0,0,1-19-19V323.23A0,0,0,0,1,248.06,323.23Z"/><path d="M358.46,99.2a62.85,62.85,0,0,0-24.69-4.54H328.2V201.14h5.57q14,0,24.69-4.88t16.86-16.69q6.12-11.81,6.13-32.35t-6.13-32Q369.19,103.74,358.46,99.2Z"/><path d="M196.17,120.48q-3.4-14.7-6.81-27.87h-.91q-3.18,13.52-6.58,28t-6.7,27.48l-3.74,14.64h35.3l-3.63-14.64Q199.58,135.19,196.17,120.48Z"/><path d="M447.46,15.81H87.7A31.52,31.52,0,0,0,56.18,47.33V280.44H479V47.33A31.52,31.52,0,0,0,447.46,15.81ZM224.67,234.63l-10-39.73h-51.2l-10,39.73H111.26L165,61.62h49.73l53.7,173Zm188.45-38a67.35,67.35,0,0,1-30,28.66q-19.24,9.31-44.44,9.31H286.54v-173h49.72q26.46,0,46.15,8.85A65.65,65.65,0,0,1,413,98.23q10.89,18.9,10.9,49T413.12,196.66Z"/></svg>