<svg id="图层_1" data-name="图层 1" xmlns="http://www.w3.org/2000/svg" viewBox="0 0 533 417"><title>后台图标3</title><path d="M389.48,343.38V319.79H364.65V307.87h24.83V299.2H364.65V287.13h19.28l-23.37-46.89H386.5L394.2,261q1.94,5.34,3.85,10.72t4,10.57h.7q1.88-5.26,3.88-10.68T410.7,261l7.49-20.74h25.46l-23.58,46.89h19.42V299.2H414.66v8.67h24.83v11.92H414.66v23.59Z"/><path d="M400,412.09A125,125,0,1,1,466.35,181a10.81,10.81,0,0,1-11.48,18.31,103.44,103.44,0,1,0,48.59,87.71,10.81,10.81,0,0,1,21.61,0A125.18,125.18,0,0,1,400,412.09Z"/><path d="M498.75,229.52c-25.08-11.28-59.31-22.1-85.56-23.71L454.61,186l19.18-41.7C475.77,170.55,487.1,204.62,498.75,229.52Z"/><path d="M275.13,340.14H91v-12H270.44a130.85,130.85,0,0,1-4.31-66.31H91v-12h178.1a130.37,130.37,0,0,1,102.73-91.38V58.69a44.94,44.94,0,0,0-44.94-44.93H80.06A44.94,44.94,0,0,0,35.12,58.69V369.2a44.94,44.94,0,0,0,44.94,44.94H326.85a44.73,44.73,0,0,0,21.37-5.4A130.67,130.67,0,0,1,275.13,340.14ZM91,93.2H223.6v12H91Zm0,78.31H223.6v12H91Z"/></svg>