<svg id="图层_1" data-name="图层 1" xmlns="http://www.w3.org/2000/svg" viewBox="0 0 533 417"><title>后台图标3</title><path d="M498.92,225.74a27.47,27.47,0,0,0-13.75-23.8l-87.89-50.75a27.49,27.49,0,0,0-27.49,0L281.9,201.94a27.47,27.47,0,0,0-13.75,23.8V327.23A27.49,27.49,0,0,0,281.9,351l87.89,50.75a27.49,27.49,0,0,0,27.49,0L485.17,351a27.49,27.49,0,0,0,13.75-23.81ZM383.54,335.32a58.84,58.84,0,1,1,58.83-58.83A58.83,58.83,0,0,1,383.54,335.32Z"/><path d="M275.06,354.36a28.86,28.86,0,0,1-14.43-25V222.81a28.85,28.85,0,0,1,14.43-25l51.76-29.89V34.82a26,26,0,0,0-26-26H70.22a26,26,0,0,0-26,26V385.53a26,26,0,0,0,26,26H300.86a26,26,0,0,0,26-26v-1.28ZM99.86,52.55H271.21V79.82H99.86Zm0,60.83H271.21v27.27H99.86Zm85.68,118.3a28.74,28.74,0,1,1,28.74-28.74A28.73,28.73,0,0,1,185.54,231.68Z"/></svg>