<svg id="图层_1" data-name="图层 1" xmlns="http://www.w3.org/2000/svg" viewBox="0 0 533 417"><title>后台图标3</title><path d="M493.5,242.73H477.79a100.61,100.61,0,0,0-5.56-13.41l11.11-11.12a12.55,12.55,0,0,0,0-17.76L455,172.07a12.55,12.55,0,0,0-17.76,0l-11.12,11.11a103.15,103.15,0,0,0-13.41-5.57v-15.7a12.56,12.56,0,0,0-12.56-12.56H360a12.56,12.56,0,0,0-12.56,12.56v15.7A102,102,0,0,0,334,183.18L322.9,172.07a12.55,12.55,0,0,0-17.76,0l-28.37,28.37a12.55,12.55,0,0,0,0,17.76l11.11,11.12a102,102,0,0,0-5.57,13.41h-15.7a12.56,12.56,0,0,0-12.56,12.56v40.13A12.56,12.56,0,0,0,266.61,308h15.7a103.15,103.15,0,0,0,5.57,13.41l-11.11,11.12a12.55,12.55,0,0,0,0,17.76l28.37,28.37a12.55,12.55,0,0,0,17.76,0L334,367.53a100.61,100.61,0,0,0,13.41,5.56V388.8A12.56,12.56,0,0,0,360,401.36h40.13a12.56,12.56,0,0,0,12.56-12.56V373.09a101.72,101.72,0,0,0,13.41-5.56l11.12,11.11a12.55,12.55,0,0,0,17.76,0l28.37-28.37a12.55,12.55,0,0,0,0-17.76l-11.11-11.12A101.72,101.72,0,0,0,477.79,308H493.5a12.56,12.56,0,0,0,12.56-12.56V255.29A12.56,12.56,0,0,0,493.5,242.73ZM380.05,333.64a58.29,58.29,0,1,1,58.29-58.29A58.28,58.28,0,0,1,380.05,333.64Z"/><path d="M233.65,276.86a135.6,135.6,0,0,1,81.86-124.52v-117a26,26,0,0,0-26-26H58.61a26,26,0,0,0-26,26V386.45a26,26,0,0,0,26,26H289.52a26,26,0,0,0,22.34-12.72A135.59,135.59,0,0,1,233.65,276.86ZM88.29,53.07H259.84V80.38H88.29Zm0,60.9H259.84v27.3H88.29Zm85.77,118.45a28.78,28.78,0,1,1,28.78-28.78A28.78,28.78,0,0,1,174.06,232.42Z"/></svg>