<svg id="图层_1" data-name="图层 1" xmlns="http://www.w3.org/2000/svg" viewBox="0 0 533 417"><title>后台图标3</title><path d="M208.75,297.83c-81,0-146.95-65.92-146.95-147s65.92-147,147-147,147,65.92,147,147S289.78,297.83,208.75,297.83Zm0-272.62A125.67,125.67,0,1,0,334.41,150.87,125.8,125.8,0,0,0,208.75,25.21Z"/><circle cx="208.75" cy="150.87" r="113.05"/><path d="M85.61,230.5,14.49,312.26a13.29,13.29,0,0,0,8.81,21.95l40.41,3.73a32.89,32.89,0,0,1,28.4,23l13.36,43.18a13.28,13.28,0,0,0,24.46,2.24L190.5,290.71Z"/><path d="M305.08,345a1.71,1.71,0,0,1-2.25-1.92l9.44-51.51L350,247.2l-19.67-21L230.15,285.51l60.56,115.66a13.28,13.28,0,0,0,24.46-2.24l13.36-43.18c.21-.68.45-1.35.7-2Z"/><rect x="392.05" y="118.8" width="56.51" height="211.12" rx="2.41" ry="2.41" transform="translate(590 669.56) rotate(-138.96)"/><path d="M321.06,342.81l45-15.45a1.8,1.8,0,0,0,.6-3.06l-37.92-33a1.8,1.8,0,0,0-3,1L316.66,339A3.37,3.37,0,0,0,321.06,342.81Z"/><path d="M479.93,112.84a28.25,28.25,0,0,1,40.45-2.23c11.33,10.42,11.89,28.16,1.78,39.78l-7.2,8.27a1.44,1.44,0,0,1-2,.14l-40.46-35.23a1.42,1.42,0,0,1-.14-2Z"/></svg>