<svg id="图层_1" data-name="图层 1" xmlns="http://www.w3.org/2000/svg" viewBox="0 0 533 417"><title>后台图标3</title><path d="M366.29,234.31V201h14.25c13.13,0,19.26-16.27,9.4-24.94L208.65,16.59a14.24,14.24,0,0,0-18.81,0L8.55,176C-1.31,184.69,4.82,201,18,201H32.2V391.78A14.25,14.25,0,0,0,46.44,406H267.16ZM205.74,315.06a9.31,9.31,0,0,1-13,0l-46-44.75c-20.25-19.72-7.16-54.51,21.1-55.33l1.15,0a38.94,38.94,0,0,1,30.23,14.35A38.91,38.91,0,0,1,229.47,215l1.15,0c28.26.82,41.36,35.61,21.1,55.33Z"/><path d="M448.47,272.76l-37.12-64.29a8.89,8.89,0,0,0-15.39,0l-37.11,64.29Z"/><polygon points="486.32 338.32 455.1 284.25 352.21 284.25 320.99 338.32 486.32 338.32"/><path d="M493,349.81H314.36l-29.46,51a8.88,8.88,0,0,0,7.69,13.32H514.72a8.88,8.88,0,0,0,7.69-13.32Z"/></svg>