<svg id="图层_1" data-name="图层 1" xmlns="http://www.w3.org/2000/svg" viewBox="0 0 533 417"><title>后台图标3</title><path d="M324,120h0c13.42-10.88,37.24-42.37,37.24-42.37,31.27-45.05-13.33-34.75-13.33-34.75-32,4-44-13-44-13-36.67-50.32-55.34,2.24-55.34,2.24-10.22,16.3-31.13,10.38-43.41,4.95a30.48,30.48,0,0,0-29.48,2.46c-34.91,23.9,40.8,82.47,40.8,82.47h0c-66.4,30.72-114,112-114,186.26,0,93.92,76.14,104,170.06,104s170.05-10.09,170.05-104C442.54,232.33,392.71,149.08,324,120ZM333,273.16V292.7h-40.2v14H333v19.32h-40.2v38.17H252.05V326.05h-40.2V306.73h40.2v-14h-40.2V273.16h31.22l-37.84-75.91h42l12.47,33.58q3.13,8.64,6.23,17.34t6.46,17.13h1.12q3-8.54,6.29-17.29t6.62-17.18l12.13-33.58h41.21l-38.18,75.91Z"/></svg>