<svg id="图层_1" data-name="图层 1" xmlns="http://www.w3.org/2000/svg" viewBox="0 0 533 417"><title>后台图标3</title><rect x="185.79" y="6.83" width="170.84" height="38.67" rx="19.34" ry="19.34"/><path d="M401.55,31.17H375.79a23.66,23.66,0,0,1-23.66,23.31H190.3a23.66,23.66,0,0,1-23.67-23.31H140.87a31.16,31.16,0,0,0-31.16,31.16V381.72a31.17,31.17,0,0,0,31.16,31.17H401.55a31.17,31.17,0,0,0,31.16-31.17V62.33A31.16,31.16,0,0,0,401.55,31.17ZM331.74,226.45V246h-40.2v14h40.2v19.32h-40.2v38.17H250.78V279.34h-40.2V260h40.2V246h-40.2V226.45h31.21L204,150.54h42l12.46,33.57q3.15,8.65,6.23,17.35t6.46,17.13h1.12q3-8.53,6.29-17.29t6.63-17.19l12.12-33.57h41.21l-38.18,75.91Z"/></svg>