<svg id="图层_1" data-name="图层 1" xmlns="http://www.w3.org/2000/svg" viewBox="0 0 533 417"><title>后台图标3</title><path d="M453.55,12a21.74,21.74,0,0,0-19.26,31.82L333.21,133.64A21.72,21.72,0,0,0,300.37,144L213,103.57c0-.11,0-.21,0-.31a21.75,21.75,0,1,0-40.34,11.23L79,192.09a21.82,21.82,0,1,0,10,8.91l93.8-77.72a21.69,21.69,0,0,0,26-7.12l91.47,42.28a21.73,21.73,0,1,0,41.06-14.26l102.48-91A21.74,21.74,0,1,0,453.55,12Z"/><path d="M93.76,238.51,196,155a11.25,11.25,0,0,1,11.57-1.62l108.53,46.79A11.26,11.26,0,0,0,328.22,198L456.34,77.14a11.25,11.25,0,0,1,19,8.18V402.47a11.24,11.24,0,0,1-11.24,11.24H100.88a11.25,11.25,0,0,1-11.25-11.24V247.22A11.26,11.26,0,0,1,93.76,238.51Z"/></svg>