<svg id="图层_1" data-name="图层 1" xmlns="http://www.w3.org/2000/svg" viewBox="0 0 533 417"><title>后台图标3</title><path d="M288.68,396.82V181.17a18.71,18.71,0,0,1,18.71-18.7H338.8V31.41A26.49,26.49,0,0,0,312.32,4.93H77.13A26.48,26.48,0,0,0,50.65,31.41V389a26.47,26.47,0,0,0,26.48,26.48H307.39A18.71,18.71,0,0,1,288.68,396.82Zm-94-164.66A29.31,29.31,0,1,1,224,202.85,29.31,29.31,0,0,1,194.72,232.16Zm87.37-92.83H107.36V111.52H282.09Zm0-62H107.36V49.49H282.09Z"/><path d="M474.93,173.54H323.12a21.63,21.63,0,0,0-21.63,21.63V390a21.63,21.63,0,0,0,21.63,21.63H474.93A21.63,21.63,0,0,0,496.55,390V195.17A21.63,21.63,0,0,0,474.93,173.54Zm-10.71,85L398.36,331.6l-10.8,12a6.88,6.88,0,0,1-9.71.5l-43.18-38.91a11.51,11.51,0,0,1-.84-16.24h0a11.5,11.5,0,0,1,16.24-.85l26.09,23.52a6.88,6.88,0,0,0,9.71-.51l61.26-68a11.5,11.5,0,0,1,16.24-.84h0A11.5,11.5,0,0,1,464.22,258.52Z"/></svg>