<svg id="图层_1" data-name="图层 1" xmlns="http://www.w3.org/2000/svg" viewBox="0 0 533 417"><title>后台图标3</title><path d="M474.67,170v-.27H312a23.77,23.77,0,0,0-23.63,23.76V390a23.76,23.76,0,0,0,23.76,23.76h159A23.76,23.76,0,0,0,494.87,390V193.49A23.77,23.77,0,0,0,474.67,170ZM324.14,230.32h84.18V237H324.14Zm0,58.2h84.18v6.65H324.14Zm131.09,64.86H324.14v-6.65H455.23Zm18.21-117.74-35,38a5.55,5.55,0,0,1-7.86.32l-4.09-3.76,0,0-16.38-15.09a5.56,5.56,0,0,1-.32-7.86h0a5.56,5.56,0,0,1,7.86-.32l12.29,11.32a5.55,5.55,0,0,0,7.86-.32l27.46-29.79a5.55,5.55,0,0,1,7.86-.32h0A5.56,5.56,0,0,1,473.44,235.64Z"/><path d="M279.23,396.21V180.56a18.71,18.71,0,0,1,18.7-18.71h31.41V30.8A26.48,26.48,0,0,0,302.86,4.32H67.67A26.48,26.48,0,0,0,41.19,30.8V388.43a26.48,26.48,0,0,0,26.48,26.48H297.93A18.7,18.7,0,0,1,279.23,396.21Zm-94-164.66a29.31,29.31,0,1,1,29.31-29.31A29.3,29.3,0,0,1,185.26,231.55Zm87.37-92.84H97.9v-27.8H272.63Zm0-62H97.9V48.88H272.63Z"/></svg>