<svg id="图层_1" data-name="图层 1" xmlns="http://www.w3.org/2000/svg" viewBox="0 0 533 417"><title>后台图标3</title><path d="M428.66,112.28H103.39c-53,0-96.36,43.36-96.36,96.36v78.14c0,53,43.36,96.36,96.36,96.36H428.66c53,0,96.37-43.36,96.37-96.36V208.64C525,155.64,481.66,112.28,428.66,112.28Zm-213.07,151h-49v49H134.25v-49h-49V231h49V182h32.34v49h49Zm128,4.08a20.54,20.54,0,1,1,20.54-20.53A20.53,20.53,0,0,1,343.54,267.37Zm41.79,39.7a20.54,20.54,0,1,1,20.53-20.53A20.53,20.53,0,0,1,385.33,307.07Zm0-78.82a20.54,20.54,0,1,1,20.53-20.54A20.53,20.53,0,0,1,385.33,228.25Zm43.08,39.12A20.54,20.54,0,1,1,449,246.84,20.53,20.53,0,0,1,428.41,267.37Z"/><path d="M257.25,123.69a11.41,11.41,0,0,1-11.19-9.3c-.6-3.16-5.38-31.43,10.63-49.5,6.05-6.83,17.54-14.69,37.83-13.36l.82,0,.79.17c.46.09,47.83,9.54,57.1-19a11.41,11.41,0,1,1,21.7,7.06c-6.64,20.43-23.74,32.76-49.45,35.67a120.2,120.2,0,0,1-33.14-1.23c-8.65-.47-14.73,1.43-18.57,5.76-7.39,8.34-6.27,25-5.29,30.14a11.42,11.42,0,0,1-9.1,13.33A11.81,11.81,0,0,1,257.25,123.69Z"/></svg>