<svg id="图层_1" data-name="图层 1" xmlns="http://www.w3.org/2000/svg" viewBox="0 0 533 417"><title>后台图标3</title><path d="M393.62,266.37l-44-49.75,67.17-59.36L454,199.38a16.07,16.07,0,0,0,22.68,1.4l9.64-8.52a16.06,16.06,0,0,0,1.4-22.68L349.2,12.78a16.06,16.06,0,0,0-22.67-1.4l-9.64,8.52a16.06,16.06,0,0,0-1.4,22.68L352.71,84.7l-67.18,59.36-44-49.76c-12.12-13.71-31.47-16.4-43.23-6l-83.67,73.94c-54.94,48.55-51.82,141.36,8,202.39C177,420.06,259,429.55,309.55,384.86L394.26,310C406,299.62,405.73,280.08,393.62,266.37Zm-192.94,36.9a14.7,14.7,0,1,1-19.47-22l86.47-76.41a14.7,14.7,0,0,1,19.47,22Z"/></svg>