<svg id="图层_1" data-name="图层 1" xmlns="http://www.w3.org/2000/svg" viewBox="0 0 533 417"><title>后台图标3</title><path d="M195.58,10.1h4.05a9.27,9.27,0,0,1,9.27,9.27v18a0,0,0,0,1,0,0h-22.6a0,0,0,0,1,0,0v-18A9.27,9.27,0,0,1,195.58,10.1Z"/><path d="M321.08,10.1h4.05a9.27,9.27,0,0,1,9.27,9.27v18a0,0,0,0,1,0,0h-22.6a0,0,0,0,1,0,0v-18A9.27,9.27,0,0,1,321.08,10.1Z"/><path d="M334.4,37.36V65.21H311.81V37.36H208.9V65.21H186.31V37.36H105.37A13.43,13.43,0,0,0,91.94,50.8v57H436.09v-57a13.43,13.43,0,0,0-13.43-13.44Z"/><path d="M91.94,118.44v274A16.1,16.1,0,0,0,108,408.5H420a16.1,16.1,0,0,0,16.1-16.11V118.44ZM163.46,322H144.08V307h19.38Zm0-65.3H144.08v-15h19.38Zm0-57.63H144.08v-15h19.38ZM385.86,322H180.33V307H385.86Zm0-65.3H180.33v-15H385.86Zm0-57.63H180.33v-15H385.86Z"/></svg>