<svg id="图层_1" data-name="图层 1" xmlns="http://www.w3.org/2000/svg" viewBox="0 0 533 417"><title>后台图标3</title><path d="M265.44,8.81C153.65,8.81,63,99.43,63,211.22s90.62,202.41,202.41,202.41S467.85,323,467.85,211.22,377.22,8.81,265.44,8.81ZM205.06,285.26A182.9,182.9,0,0,1,195.25,306a142.64,142.64,0,0,1-13.11,20,9.71,9.71,0,0,1-11.87,2.73l-16-7.78A9.71,9.71,0,0,1,151,306.15a117.34,117.34,0,0,0,8.65-12.59,172.22,172.22,0,0,0,10.41-20.08A9.68,9.68,0,0,1,181.3,268l17.12,4.29A9.7,9.7,0,0,1,205.06,285.26Zm43.72,43.26L231,330.7a9.68,9.68,0,0,1-10.85-9.14q-.13-2.87-.35-6-.61-9.5-1.8-19.69-.56-4.8-1.18-9.36a9.67,9.67,0,0,1,8.61-10.92l16.22-1.67a9.68,9.68,0,0,1,10.51,7.78q.93,4.89,1.74,10.08,1.55,9.93,2.61,19.31c.27,2.47.51,4.81.7,7A9.67,9.67,0,0,1,248.78,328.52Zm-64.95-69.8a9.69,9.69,0,0,1-9.69-9.69V174.89a9.69,9.69,0,0,1,9.69-9.69h51a9.69,9.69,0,0,0,9.69-9.69V101.36a9.68,9.68,0,0,1,9.69-9.68H272.5a9.68,9.68,0,0,1,9.69,9.68v.5a9.69,9.69,0,0,0,9.69,9.69h69.18a9.68,9.68,0,0,1,9.68,9.68v14.91a9.68,9.68,0,0,1-9.68,9.69H291.88a9.69,9.69,0,1,0,0,19.37h53.65a9.69,9.69,0,0,1,9.69,9.69V249a9.69,9.69,0,0,1-9.69,9.69Zm127.42,64.81-16.8,4.27a9.67,9.67,0,0,1-11.76-6.95c-.55-2.11-1.17-4.33-1.86-6.68q-2.74-9.24-6.28-19c-1-2.72-2-5.36-2.95-7.94a9.69,9.69,0,0,1,6.91-12.88l15.11-3.44a9.68,9.68,0,0,1,11,5.51q2.19,5,4.39,10.31,3.84,9.38,7,18.38,1.09,3.15,2,6A9.7,9.7,0,0,1,311.25,323.53Zm64.49-1.72-17.16,6.53a9.69,9.69,0,0,1-12.31-5.17q-1.8-4.07-4.15-8.62-5-9.75-11.12-20-2.72-4.57-5.39-8.85a9.66,9.66,0,0,1,4.94-14.22l15-5.41a9.69,9.69,0,0,1,11.25,3.6q4,5.68,8.12,12,6.45,9.76,11.92,19.25c1.47,2.57,2.83,5,4.06,7.4A9.69,9.69,0,0,1,375.74,321.81Z"/><rect x="209.54" y="199.23" width="107.8" height="25.46" rx="9.69" ry="9.69"/></svg>