<svg id="图层_1" data-name="图层 1" xmlns="http://www.w3.org/2000/svg" viewBox="0 0 533 417"><title>后台图标3</title><path d="M321.87,18.08a5,5,0,0,0-5.75-5.59l-57.73,9.06A166.39,166.39,0,0,1,213.56,24a109.22,109.22,0,0,0-48.7,7.62,93.9,93.9,0,0,0-53.09,53.33c-28.23,72.8,24.71,141.74,93.75,141.74a101.51,101.51,0,0,0,101-90.87h0Z"/><path d="M400.32,160.48A121.85,121.85,0,1,0,522.17,282.33,121.85,121.85,0,0,0,400.32,160.48ZM364,326.9a110.66,110.66,0,0,1-5.91,12.47,86.68,86.68,0,0,1-7.89,12.05,5.85,5.85,0,0,1-7.14,1.64l-9.61-4.68a5.85,5.85,0,0,1-2-8.91,71.36,71.36,0,0,0,5.2-7.58,102.28,102.28,0,0,0,6.27-12.08,5.82,5.82,0,0,1,6.76-3.32l10.3,2.58A5.84,5.84,0,0,1,364,326.9Zm26.32,26-10.68,1.32a5.84,5.84,0,0,1-6.54-5.5c-.05-1.15-.12-2.36-.2-3.63q-.37-5.72-1.09-11.85c-.22-1.93-.46-3.8-.71-5.63a5.83,5.83,0,0,1,5.18-6.58l9.77-1a5.82,5.82,0,0,1,6.32,4.68q.57,2.94,1,6.07.93,6,1.57,11.62c.17,1.49.31,2.9.43,4.23A5.82,5.82,0,0,1,390.3,352.93Zm-39.1-42a5.84,5.84,0,0,1-5.84-5.83V260.45a5.84,5.84,0,0,1,5.84-5.83h30.72a5.83,5.83,0,0,0,5.84-5.83v-32.6a5.83,5.83,0,0,1,5.83-5.83h11a5.83,5.83,0,0,1,5.83,5.83v.3a5.83,5.83,0,0,0,5.83,5.83h41.65a5.83,5.83,0,0,1,5.83,5.83v9a5.83,5.83,0,0,1-5.83,5.83H416.24a5.83,5.83,0,1,0,0,11.66h32.3a5.83,5.83,0,0,1,5.83,5.83v44.64a5.83,5.83,0,0,1-5.83,5.83Zm76.7,39-10.11,2.57a5.83,5.83,0,0,1-7.08-4.19c-.33-1.27-.71-2.61-1.12-4q-1.65-5.57-3.78-11.44c-.59-1.63-1.18-3.23-1.77-4.78a5.82,5.82,0,0,1,4.15-7.75l9.1-2.07a5.83,5.83,0,0,1,6.63,3.31c.88,2,1.76,4.06,2.64,6.21q2.31,5.64,4.22,11.06c.45,1.27.86,2.48,1.23,3.64A5.85,5.85,0,0,1,427.9,349.94Zm38.82-1-10.32,3.93a5.84,5.84,0,0,1-7.42-3.11q-1.08-2.45-2.5-5.19-3-5.88-6.69-12c-1.09-1.84-2.17-3.61-3.24-5.33a5.82,5.82,0,0,1,3-8.56l9-3.26a5.86,5.86,0,0,1,6.78,2.17q2.39,3.42,4.88,7.2,3.89,5.88,7.18,11.59c.89,1.54,1.7,3,2.44,4.45A5.83,5.83,0,0,1,466.72,348.9Z"/><rect x="366.67" y="275.11" width="64.9" height="15.33" rx="5.83" ry="5.83"/><path d="M265.26,279.61a134.84,134.84,0,0,1,8-45.78A250.93,250.93,0,0,0,213,226.67c-111.36,0-201.63,68.79-201.63,180.15H354.85A135.11,135.11,0,0,1,265.26,279.61Z"/></svg>