<svg id="图层_1" data-name="图层 1" xmlns="http://www.w3.org/2000/svg" viewBox="0 0 533 417"><title>后台图标3</title><rect x="393.66" y="114.19" width="56.51" height="211.12" rx="2.41" ry="2.41" transform="translate(600.89 660.51) rotate(-139.61)"/><path d="M324,339.31l44.8-16a1.8,1.8,0,0,0,.56-3.06L331.1,287.71a1.8,1.8,0,0,0-2.94,1.05l-8.57,46.78A3.36,3.36,0,0,0,324,339.31Z"/><path d="M480.27,107.55a28.26,28.26,0,0,1,40.42-2.69c11.45,10.3,12.21,28,2.24,39.76L515.82,153a1.43,1.43,0,0,1-2,.16l-40.87-34.76a1.43,1.43,0,0,1-.16-2Z"/><path d="M313.68,281.34l67.95-79.87c-2.23-93.89-79.3-169.58-173.71-169.58-95.82,0-173.77,78-173.77,173.76S112.1,379.42,207.92,379.42A172.8,172.8,0,0,0,309,346.88l-3.83-2.52a2,2,0,0,1-2.66-2.27Zm-38.23-66.7v21.81H230.6v15.66h44.85v21.55H230.6v42.6H185.11v-42.6H140.26V252.11h44.85V236.45H140.26V214.64h34.83l-42.22-84.7h46.86l13.9,37.47q3.51,9.65,7,19.36t7.2,19.1h1.26q3.38-9.51,7-19.29t7.4-19.17L237,129.94h46l-42.6,84.7Z"/><path d="M313,349.5a177.31,177.31,0,0,1-105.11,34.38c-98.28,0-178.23-79.95-178.23-178.23s80-178.23,178.23-178.23c95.18,0,173.18,75,178,169l19.45-22.86C390,78.37,307.46,5.65,207.92,5.65c-110.46,0-200,89.54-200,200s89.55,200,200,200a199.15,199.15,0,0,0,124.46-43.44Z"/></svg>