<svg id="图层_1" data-name="图层 1" xmlns="http://www.w3.org/2000/svg" viewBox="0 0 533 417"><title>后台图标3</title><path d="M387.78,395.05c-75.35,0-136.65-61.3-136.65-136.65s61.3-136.64,136.65-136.64,136.64,61.3,136.64,136.64S463.12,395.05,387.78,395.05Zm0-258.85A122.21,122.21,0,1,0,510,258.4,122.34,122.34,0,0,0,387.78,136.2Z"/><path d="M464.34,235v15.67H311.42V235h66.24v-7.15H329.13V214h48.53v-7.16H321.3V191.71h56.36V181.32h20.78v10.39h58.75v15.15H398.44V214H449.7v13.79H398.44V235Zm-65.9,56.88c0,16.86-9.88,36.27-71.53,48.19a78.69,78.69,0,0,0-13.11-15.84c57.9-8.85,63.35-22.64,63.35-32.86V278.39h21.29Zm26.22,15V274H351.1v34.91H330.66V256.93H446v49.9ZM402,302.74c19.25,5.11,46.66,14.47,60.8,21.8l-9.88,16.68c-13.45-7.49-40.53-17.88-60.28-23.84Z"/><path d="M261.47,341.3a362.84,362.84,0,0,1-78.69,8.27c-83,0-152.1-25.5-167.19-59.23a33.65,33.65,0,0,0-3.07,13.86v26.32h0c1.38,39.85,77.06,72,170.23,72,46.79,0,89.16-8.1,119.93-21.22A146.49,146.49,0,0,1,261.47,341.3Z"/><path d="M236.68,274.69a382.49,382.49,0,0,1-53.9,3.74c-83,0-152.1-25.49-167.19-59.23a33.69,33.69,0,0,0-3.07,13.86v26.33h0c1.38,39.85,77.06,72,170.23,72a371,371,0,0,0,69-6.26A145,145,0,0,1,236.68,274.69Z"/><path d="M247.49,201.48A374.55,374.55,0,0,1,182.78,207c-83,0-152.1-25.5-167.19-59.23a33.65,33.65,0,0,0-3.07,13.86V187.9h0c1.38,39.85,77.06,72,170.23,72a382.1,382.1,0,0,0,53.06-3.62A145.07,145.07,0,0,1,247.49,201.48Z"/><path d="M352.74,115.87c.13-1,.23-2,.26-3h0V86.53c0-40.37-76.23-73.09-170.26-73.09S12.52,46.16,12.52,86.53v26.32h0c1.38,39.85,77.06,72,170.23,72a363.26,363.26,0,0,0,78.34-8.19A145.8,145.8,0,0,1,352.74,115.87Z"/></svg>