<svg id="图层_1" data-name="图层 1" xmlns="http://www.w3.org/2000/svg" viewBox="0 0 533 417"><title>后台图标3</title><path d="M369,6.1H189a21.06,21.06,0,0,0-21.07,21.06V127A21.07,21.07,0,0,0,189,148.05H369A21.06,21.06,0,0,0,390.1,127V27.16A21.06,21.06,0,0,0,369,6.1ZM214.52,35H288.9v12.2H214.52Zm129.77,81.29H214.52V104.12H344.29Zm0-34.55H214.52V69.57H344.29Z"/><path d="M447.53,96.53H390.1v22.73h20.52v35.05H147.36v-35h20.52V96.53H110.45a22.53,22.53,0,0,0-22.52,22.53V392.51A22.52,22.52,0,0,0,110.45,415H447.53a22.52,22.52,0,0,0,22.52-22.52V119.06A22.53,22.53,0,0,0,447.53,96.53ZM375,244.37v24.87c0,48-43,87-95.86,87s-95.87-39-95.87-87V244.5a21.41,21.41,0,1,1,24.07-.39v25.13c0,34.72,32.21,63,71.8,63s71.79-28.25,71.79-63v-25a21.41,21.41,0,1,1,24.07.11Z"/></svg>