<svg id="图层_1" data-name="图层 1" xmlns="http://www.w3.org/2000/svg" viewBox="0 0 533 417"><title>后台图标3</title><path d="M389.89,13.76H143.11A44.94,44.94,0,0,0,98.17,58.69V369.2a44.94,44.94,0,0,0,44.94,44.94H389.89a44.94,44.94,0,0,0,44.94-44.94V58.69A44.94,44.94,0,0,0,389.89,13.76ZM147.38,175.16H280v12H147.38ZM374.36,348h-227V336h227Zm0-80.42h-227v-12h227Zm6.48-172.34v10.2h-21v7.34h21v10.09h-21v19.95H338.54V122.87h-21V112.78h21v-7.34h-21V95.24h16.31L314.07,55.57H336l6.52,17.55q1.64,4.51,3.25,9.06t3.38,8.95h.58q1.59-4.45,3.29-9t3.46-9l6.34-17.55h21.53L364.41,95.24Z"/></svg>