<svg id="图层_1" data-name="图层 1" xmlns="http://www.w3.org/2000/svg" viewBox="0 0 533 417"><title>后台图标3</title><path d="M409.5,356.83a76,76,0,1,1,75.95-75.95A76,76,0,0,1,409.5,356.83Zm0-139.29a63.34,63.34,0,1,0,63.34,63.34A63.41,63.41,0,0,0,409.5,217.54Z"/><circle cx="409.5" cy="280.88" r="57.76"/><path d="M346.58,321.56l-36.34,41.78a6.78,6.78,0,0,0,4.5,11.21l20.65,1.91a16.81,16.81,0,0,1,14.51,11.77l6.82,22.06a6.79,6.79,0,0,0,12.5,1.15l30.95-59.11Z"/><path d="M471.62,319.39l38.73,41.28a6.78,6.78,0,0,1-4.49,11.21l-20.65,1.91a16.8,16.8,0,0,0-14.52,11.77l-6.82,22.06a6.79,6.79,0,0,1-12.5,1.14l-30.94-59.09Z"/><path d="M380.49,385.76a13.85,13.85,0,0,0,7.45-12.28v-1.94Z"/><path d="M297.22,386.17a7.64,7.64,0,0,1-5.06-12.63L332.3,327.4a85.4,85.4,0,0,1,55.64-130.65v-9H401.8c12.78,0,18.75-15.83,9.15-24.27L234.53,8.37a13.87,13.87,0,0,0-18.31,0L39.8,163.52C30.21,172,36.18,187.79,49,187.79H62.81V373.48a13.86,13.86,0,0,0,13.86,13.86H309.93Zm-17.17-122-47.9,46.63a9.7,9.7,0,0,1-13.54,0l-47.9-46.63c-21.11-20.54-7.46-56.79,22-57.64.39,0,.79,0,1.19,0a40.57,40.57,0,0,1,31.5,14.95,40.54,40.54,0,0,1,31.49-14.95c.4,0,.8,0,1.2,0C287.51,207.34,301.15,243.59,280.05,264.13Z"/></svg>