<svg id="图层_1" data-name="图层 1" xmlns="http://www.w3.org/2000/svg" viewBox="0 0 533 417"><title>后台图标3</title><path d="M183.79,142.14V108.29c0-40.55,37.61-73.54,83.84-73.54s83.85,33,83.85,73.54v33.85h28.1V108.29c0-56-50.22-101.64-111.95-101.64S155.69,52.25,155.69,108.29v33.85Z"/><path d="M428.75,166.84a27.94,27.94,0,0,0-27.66-24H379.47v15.51a19.41,19.41,0,1,1-28,0V142.82H183.73v15.47a19.42,19.42,0,1,1-28,.08V142.82H132.54a27.93,27.93,0,0,0-27.65,23.94L73.3,385.13a29.13,29.13,0,0,0,29.12,29.13H430.58a29.13,29.13,0,0,0,29.12-29.13ZM168.1,356.66H148v-17.5H168.1Zm0-54.4H148v-17.5H168.1Zm0-45.78H148V239H168.1ZM185.91,239H301v17.5h-115ZM388.44,356.66H185.91v-17.5H388.44Zm0-50.09H185.91v-17.5H388.44Z"/></svg>