<svg id="图层_1" data-name="图层 1" xmlns="http://www.w3.org/2000/svg" viewBox="0 0 533 417"><title>后台图标3</title><path d="M226.41,277.14H432.74a21.2,21.2,0,0,0,19.69-13.34l68-170.27a21.21,21.21,0,0,0-19.7-29.07H141.57c-.1-.15-.18-.31-.28-.46L112.15,20.77a16.67,16.67,0,0,0-13.8-7.33H25.14a16.64,16.64,0,1,0,0,33.27H89.5l24.2,35.9a16.9,16.9,0,0,0,3.13,3.44l71,177.75a21.14,21.14,0,0,0,4.54,6.95l-26.81,48.87a24.46,24.46,0,0,0,.4,24.42,27.47,27.47,0,0,0,23.7,13.11h34.11a27.74,27.74,0,1,0,35.29,0H387.88a27.73,27.73,0,1,0,35.3,0H461a16.64,16.64,0,1,0,0-33.27H201.13l24-43.74A17.46,17.46,0,0,0,226.41,277.14Z"/></svg>