<svg id="图层_1" data-name="图层 1" xmlns="http://www.w3.org/2000/svg" viewBox="0 0 533 417"><title>后台图标3</title><path d="M429.93,94.23,292,14.59a43.15,43.15,0,0,0-43.13,0L110.92,94.23a43.12,43.12,0,0,0-21.57,37.36V290.86a43.14,43.14,0,0,0,21.57,37.36l137.94,79.63a43.1,43.1,0,0,0,43.13,0l137.94-79.63a43.16,43.16,0,0,0,21.57-37.36V131.59A43.14,43.14,0,0,0,429.93,94.23ZM360.5,118.35H207.68l66.81,78.58a22.16,22.16,0,0,1-.62,29.39l-64.66,69.89H360.5v24.53H203.77a22.15,22.15,0,0,1-16.26-37.2l66.92-72.33-68.77-80.88a22.16,22.16,0,0,1,16.87-36.51h158Z"/></svg>