<svg id="图层_1" data-name="图层 1" xmlns="http://www.w3.org/2000/svg" viewBox="0 0 533 417"><title>后台图标3</title><path d="M429.29,100,286.15,17.31a34.3,34.3,0,0,0-34.31,0L108.71,100a34.31,34.31,0,0,0-17.16,29.72V294.94a34.31,34.31,0,0,0,17.16,29.72L251.84,407.3a34.3,34.3,0,0,0,34.31,0l143.14-82.64a34.31,34.31,0,0,0,17.16-29.72V129.67A34.31,34.31,0,0,0,429.29,100Zm-108,211.63a65.39,65.39,0,1,1-71-101.87L248.94,105a17.89,17.89,0,1,1,35.78-.46l.25,19.25,31.52-.4a11.83,11.83,0,0,1,12,11.68h0a11.84,11.84,0,0,1-11.69,12l-31.51.41.79,61.83a65.35,65.35,0,0,1,35.25,102.33Z"/><path d="M268.51,234.73a37.65,37.65,0,1,0,38.13,37.16A37.63,37.63,0,0,0,268.51,234.73Z"/></svg>