<svg id="图层_1" data-name="图层 1" xmlns="http://www.w3.org/2000/svg" viewBox="0 0 533 417"><title>后台图标3</title><path d="M507.14,144.15H354.64a23,23,0,0,0-23,23V355.71a23,23,0,0,0,23,23h152.5a23,23,0,0,0,23-23V167.18A23,23,0,0,0,507.14,144.15Zm-143.88,48h49.82v6.46H363.26Zm0,43.88h76.15v6.46H363.26Zm0,43.88H466v6.46H363.26ZM498.51,330.3H363.26v-6.46H498.51Z"/><path d="M323.82,359.94V232.6a208.1,208.1,0,0,0-73.1-29.68,99.31,99.31,0,1,0-93.84,0c-88.35,17.91-154,86.34-154,181.17H337.28A28.38,28.38,0,0,1,323.82,359.94ZM245.38,165.58c-13.6,13.33-27.78,20.07-42.19,20.07-.94,0-1.87,0-2.81-.09-23.07-1.4-37.88-19.58-38.49-20.36a4.24,4.24,0,1,1,6.61-5.3c.19.23,13.23,16.07,32.47,17.2,12.85.75,25.81-5.16,38.47-17.58a4.24,4.24,0,0,1,5.94,6.06Z"/></svg>